<?xml version="1.0" encoding="utf-8"?>
<!-- Generator: Adobe Illustrator 21.0.0, SVG Export Plug-In . SVG Version: 6.00 Build 0)  -->
<svg width="720" height="1280" version="1.1" id="Layer_1" xmlns="http://www.w3.org/2000/svg" xmlns:xlink="http://www.w3.org/1999/xlink" x="0px" y="0px"
	 viewBox="0 0 595.3 841.9" style="enable-background:new 0 0 595.3 841.9;" xml:space="preserve">
<style type="text/css">
	.st0{fill:#FFFFFF;}
	.st1{fill:none;stroke:#000000;stroke-width:0.5;stroke-miterlimit:10;}
	.st2{fill:#E6E7E8;}
	.st3{fill:#FFFFFF;stroke:#D1D3D4;stroke-miterlimit:10;}
	.st4{font-family:'Roboto-Bold';}
	.st5{font-size:11.1667px;}
	.st6{font-family:'Roboto-Italic';}
	.st7{font-size:9.5715px;}
	.st8{font-family:'Roboto-Regular';}
	.st9{letter-spacing:18;}
	.st10{letter-spacing:26;}
	.st11{letter-spacing:10;}
	.st12{letter-spacing:8;}
	.st13{letter-spacing:-1;}
	.st14{letter-spacing:22;}
	.st15{letter-spacing:2;}
	.st16{font-family:'Roboto-BoldItalic';}
	.st17{letter-spacing:19;}
	.st18{letter-spacing:23;}
	.st19{letter-spacing:14;}
	.st20{letter-spacing:17;}
	.st21{letter-spacing:1;}
	.st22{letter-spacing:11;}
	.st23{letter-spacing:6;}
	.st24{fill:none;}
	.st25{font-size:7.9762px;}
</style>
<rect x="-0.3" y="0" class="st0" width="595.3" height="841.9"/>
<g>
	<path d="M50.2,55.2c0-2.1,0-4.3,0-6.4c-0.1-0.1-0.2-0.1-0.4-0.2c-3-1.7-6-3.5-9-5.2c-0.1-0.1-0.3-0.1-0.4-0.2
		c-0.3-0.2-0.2-0.6,0-0.8c0.1-0.1,0.2-0.1,0.3-0.2c0.9-0.5,1.9-1.1,2.8-1.6c0.3-0.2,0.6-0.2,1,0c3.2,1.9,6.4,3.7,9.6,5.5
		c0.3,0.2,0.4,0.4,0.4,0.7c0,3.7,0,7.5,0,11.2c0,0.3-0.1,0.5-0.4,0.6c-1,0.6-2,1.2-3,1.7c-0.3,0.2-0.5,0.2-0.8,0
		c-3.2-1.8-6.3-3.7-9.5-5.5c-0.1,0-0.1-0.1-0.2-0.1c-0.4-0.3-0.4-0.7,0-0.9c0.4-0.2,0.7-0.4,1.1-0.7c0.4-0.3,0.9-0.5,1.4-0.8
		c-1.7-1-3.4-2-5.1-3c0,0.2,0,0.3,0,0.5c0,1.9,0,3.8,0,5.6c0,0.3,0.1,0.5,0.3,0.6c3,1.7,6.1,3.5,9.1,5.2c0.1,0.1,0.2,0.1,0.3,0.2
		c0.3,0.2,0.3,0.6,0,0.8c-0.1,0.1-0.2,0.1-0.2,0.2c-1,0.6-2,1.1-2.9,1.7c-0.3,0.2-0.6,0.2-0.9,0c-3.2-1.9-6.4-3.7-9.6-5.5
		c-0.3-0.2-0.4-0.3-0.4-0.6c0-3.7,0-7.5,0-11.2c0-0.3,0.1-0.5,0.4-0.7c1-0.6,2-1.2,3.1-1.8c0.3-0.2,0.5-0.1,0.8,0
		c3.2,1.8,6.3,3.7,9.5,5.5c0.1,0,0.2,0.1,0.2,0.1c0.4,0.2,0.4,0.6,0,0.9c-0.1,0-0.1,0.1-0.2,0.1c-0.6,0.4-1.3,0.7-1.9,1.1
		c-0.1,0.1-0.2,0.1-0.3,0.2C45.4,52.5,49.8,55,50.2,55.2z M46.4,61.8c-0.3-0.2-0.5-0.3-0.8-0.5c-2.6-1.5-5.2-3-7.9-4.5
		c-0.2-0.1-0.4-0.1-0.6,0c-0.5,0.3-1,0.6-1.5,0.9c-0.2,0.1-0.3,0.2-0.5,0.3c0.2,0.1,0.3,0.2,0.4,0.2c2.1,1.2,4.3,2.5,6.4,3.7
		c0.6,0.4,1.2,0.7,1.9,1.1c0.2,0.1,0.3,0.1,0.5,0c0.3-0.2,0.6-0.3,0.8-0.5C45.6,62.3,46,62.1,46.4,61.8z M41.8,42.7
		c3,1.8,6,3.5,8.9,5.2c0.8-0.4,1.5-0.9,2.3-1.3c-3-1.7-6-3.5-8.9-5.2C43.3,41.8,42.6,42.2,41.8,42.7z M36.9,55.8c0-0.1,0-0.1,0-0.2
		c0-2.2,0-4.5,0-6.7c0-0.2-0.1-0.3-0.2-0.4c-0.6-0.4-1.2-0.7-1.9-1.1c-0.1,0-0.1,0-0.2-0.1c-0.1,1.1,0,9.3,0.1,9.6
		C35.5,56.7,36.2,56.2,36.9,55.8z M53.5,47.4c-0.1,0.1-0.3,0.1-0.4,0.2c-0.5,0.3-1,0.6-1.6,0.9c-0.3,0.1-0.4,0.3-0.4,0.7
		c0,2.1,0,4.1,0,6.2c0,0.1,0,0.3,0,0.4c0.8,0.4,1.5,0.9,2.3,1.3C53.5,53.9,53.5,50.7,53.5,47.4z M38,45.5c0,0.9,0,1.8,0,2.7
		c2,1.2,4.1,2.4,6.1,3.5c0.8-0.4,1.5-0.9,2.3-1.3C43.6,48.7,40.8,47.1,38,45.5z M50.2,59c0-0.2,0-0.3,0-0.4c0-0.6,0-1.3,0-1.9
		c0-0.3-0.1-0.4-0.3-0.5c-1.8-1.1-3.7-2.1-5.5-3.2c-0.1-0.1-0.2-0.1-0.3-0.2c-0.8,0.4-1.5,0.9-2.3,1.3C44.6,55.8,47.4,57.4,50.2,59z
		 M51.2,59c0.6-0.4,1.2-0.7,1.8-1c-0.6-0.4-1.2-0.7-1.8-1C51.2,57.7,51.2,58.3,51.2,59z M37,47.6c0-0.7,0-1.4,0-2.1
		c-0.6,0.4-1.2,0.7-1.8,1C35.8,46.9,36.3,47.2,37,47.6z"/>
	<path d="M133.3,49.5c-1,3.1-2,6.3-3,9.5c-0.9,0-1.8,0-2.6,0c-1.4-4.6-2.7-9.2-4.1-13.8c1.1,0,2.2,0,3.3,0c0.7,2.9,1.4,5.8,2.2,8.7
		c0,0,0.1,0,0.1,0c0.9-2.9,1.9-5.8,2.8-8.7c1,0,1.9,0,2.9,0c0.9,3,1.9,6,2.8,9c0,0,0.1,0,0.1,0c0.8-3,1.5-6,2.3-9c1,0,2,0,3,0
		c0,0,0,0,0,0c0,0,0,0,0,0c0,0.1,0,0.2,0,0.2c-1.3,4.5-2.6,9-3.9,13.5c-0.9,0-1.8,0-2.7,0C135.4,55.8,134.4,52.7,133.3,49.5
		C133.4,49.5,133.4,49.5,133.3,49.5z"/>
	<path d="M152.5,44.8c1.1,0,2.2,0.2,3.2,0.6c2,0.8,3.3,2.2,3.9,4.3c0.5,1.6,0.5,3.2,0,4.8c-0.7,2.1-2.1,3.6-4.2,4.3
		c-2,0.7-4,0.7-6-0.1c-2.5-1-3.9-2.8-4.3-5.5c-0.2-1.3-0.1-2.6,0.3-3.8c0.8-2.5,2.6-3.9,5.1-4.5C151.3,44.9,151.9,44.9,152.5,44.8z
		 M156.9,52.3c0-0.4,0-0.6-0.1-0.8c-0.2-1.7-1.3-3.2-3-3.6c-0.6-0.2-1.2-0.2-1.8-0.1c-1.6,0.2-2.7,0.9-3.4,2.4
		c-0.3,0.7-0.4,1.4-0.4,2.2c0.1,2.3,1.5,4.1,3.8,4.3c2.1,0.2,4-0.9,4.6-3.1C156.8,53,156.8,52.6,156.9,52.3z"/>
	<path d="M82,44.8c1.4,0,2.8,0.3,4,1c2,1.1,3.1,2.9,3.4,5.1c0.2,1.1,0.1,2.3-0.2,3.4c-0.7,2.4-2.2,4-4.6,4.7c-2,0.6-4,0.6-5.9-0.3
		c-2.4-1-3.7-2.9-4.1-5.4c-0.2-1.3-0.1-2.7,0.4-3.9c0.9-2.4,2.6-3.8,5.1-4.3C80.7,44.9,81.4,44.9,82,44.8z M77.7,52.1
		c0.1,1,0.3,1.9,0.8,2.7c0.9,1.3,2.2,1.8,3.7,1.8c1.9-0.1,3.4-1.3,3.9-3.1c0.2-0.7,0.2-1.4,0.1-2.1c-0.2-1.6-1-2.7-2.5-3.3
		c-0.5-0.2-1-0.3-1.6-0.3c-2-0.1-3.6,1-4.2,2.8C77.8,51,77.8,51.6,77.7,52.1z"/>
	<path d="M163.7,45.2c0.2,0,0.3,0,0.4,0c1.7,0,3.4,0,5.1,0c0.8,0,1.6,0.1,2.4,0.3c1.3,0.4,2.2,1.3,2.5,2.6c0.2,0.9,0.2,1.8-0.1,2.7
		c-0.4,1.1-1.1,1.9-2.3,2.2c-0.1,0-0.3,0.1-0.4,0.1c0,0,0,0-0.1,0.1c1.1,1.9,2.3,3.8,3.4,5.7c-0.2,0-0.3,0-0.4,0c-1,0-1.9,0-2.9,0
		c-0.3,0-0.4-0.1-0.5-0.3c-0.8-1.5-1.6-3.1-2.4-4.6c-0.4-0.7-0.2-0.6-1-0.6c-0.3,0-0.5,0-0.8,0c0,1.9,0,3.7,0,5.4
		c-0.3,0.1-2.5,0.1-3,0C163.7,54.4,163.7,49.8,163.7,45.2z M166.7,47.8c0,1.1,0,2.1,0,3.1c0.1,0,0.1,0,0.1,0c0.9,0,1.7,0,2.5,0
		c0.3,0,0.6-0.1,0.9-0.2c0.3-0.1,0.5-0.3,0.6-0.6c0.3-0.8,0.1-1.7-0.9-2c-0.1,0-0.3-0.1-0.4-0.1C168.7,47.8,167.7,47.8,166.7,47.8z"
		/>
	<path d="M190.4,45.3c-2,2.1-4,4.2-6.1,6.3c2.2,2.5,4.4,4.9,6.6,7.4c-0.1,0-0.2,0-0.3,0c-1.2,0-2.5,0-3.7,0c-0.3,0-0.4-0.1-0.5-0.3
		c-1.5-1.8-3.1-3.6-4.6-5.4c-0.2-0.2-0.4-0.5-0.6-0.7c-0.1,0.1-0.1,0.3-0.1,0.4c0,1.8,0,3.7,0,5.5c0,0.2,0,0.3,0,0.5c-1,0-2,0-3,0
		c-0.1-0.3-0.1-13,0-13.8c1,0,2,0,3,0c0,1.9,0,3.7,0,5.6c0,0,0.1,0,0.1,0c0.1-0.1,0.2-0.2,0.3-0.3c1.6-1.7,3.1-3.3,4.7-5
		c0.2-0.2,0.4-0.3,0.7-0.3c1,0,2.1,0,3.1,0C190.1,45.2,190.2,45.2,190.4,45.3C190.4,45.2,190.4,45.2,190.4,45.3z"/>
	<path d="M70.1,55.1c0.9,0.6,1.7,1.3,2.5,1.9c-0.1,0.1-0.1,0.2-0.2,0.3c-0.8,1.1-2,1.7-3.3,2c-2.1,0.4-4.1,0.1-5.9-1
		c-1.8-1.1-2.7-2.8-3-4.8c-0.2-1.2-0.1-2.5,0.3-3.7c0.8-2.5,2.6-4,5.1-4.6c1.4-0.3,2.8-0.3,4.2,0.2c0.9,0.3,1.8,0.8,2.4,1.7
		c-0.8,0.6-1.5,1.3-2.3,1.9c-0.1,0-0.1,0-0.1,0c-1.3-1.5-4.4-1.5-5.8,0.7c-0.6,0.9-0.8,1.8-0.8,2.8c0,1.1,0.3,2.2,1.1,3
		c1,1.2,2.3,1.5,3.8,1.2c0.6-0.2,1.1-0.5,1.5-1C69.8,55.3,69.9,55.2,70.1,55.1z"/>
	<path d="M102.2,54.3c1.2,0.9,2.3,1.7,3.4,2.6c-0.5,0.8-1.1,1.5-2,2c-1.2,0.7-2.5,1-3.8,1c-1.4,0-2.7-0.3-4-0.9
		c-2.3-1.2-3.6-3.1-3.9-5.6c-0.2-1.5-0.1-2.9,0.4-4.3c0.9-2.4,2.7-3.9,5.2-4.5c1.7-0.4,3.3-0.4,5,0.2c1.1,0.4,2,1.1,2.7,2.1
		c0,0,0,0.1,0.1,0.1c-1,0.9-2.1,1.7-3.1,2.6c-0.1-0.1-0.2-0.2-0.3-0.3c-0.7-0.9-1.6-1.2-2.7-1c-1.3,0.2-2.2,0.9-2.6,2
		c-0.7,1.6-0.6,3.2,0.5,4.6c0.8,1.1,2,1.4,3.3,1.1c0.7-0.2,1.2-0.5,1.6-1.1C101.9,54.6,102.1,54.5,102.2,54.3z M104.1,57.1
		c-0.5-0.4-1.1-0.8-1.6-1.2c-0.1,0.1-0.2,0.2-0.3,0.3c-0.4,0.4-0.9,0.7-1.5,0.8c-1.9,0.5-3.9-0.3-4.8-2c-1.1-1.9-1.1-3.8,0-5.7
		c1.3-2.2,4.3-2.8,6.3-1.3c0,0,0.1,0,0.1,0.1c0.5-0.4,1-0.8,1.5-1.2c-0.5-0.5-1.1-0.8-1.7-1c-1.3-0.5-2.7-0.5-4-0.2
		c-2.4,0.6-4,2-4.7,4.3c-0.4,1.5-0.4,2.9,0,4.4c0.4,1.5,1.3,2.7,2.6,3.5c1.9,1.1,3.8,1.3,5.9,0.7C102.7,58.2,103.4,57.8,104.1,57.1z
		"/>
	<path d="M114.3,60c-1.5,0-2.9-0.3-4.3-1.1c-2.1-1.2-3.3-3-3.6-5.4c-0.2-1.4-0.1-2.8,0.4-4.2c1-2.7,2.9-4.2,5.7-4.8
		c1.8-0.4,3.6-0.3,5.3,0.5c2.6,1.1,4.1,3.1,4.5,5.9c0.2,1.5,0.1,2.9-0.4,4.3c-1,2.5-2.9,4-5.4,4.6C115.7,59.8,115,59.9,114.3,60z
		 M114.3,45.4c-0.6,0.1-1.3,0.1-1.9,0.3c-2.3,0.5-4,1.9-4.7,4.2c-0.4,1.2-0.4,2.4-0.2,3.6c0.4,2.2,1.6,3.8,3.6,4.7
		c1.5,0.7,3.1,0.8,4.8,0.5c2.5-0.5,4.2-1.9,5-4.3c0.4-1.2,0.4-2.5,0.2-3.7c-0.4-2-1.5-3.6-3.4-4.5C116.6,45.6,115.5,45.4,114.3,45.4
		z"/>
	<path d="M109.5,52.1c0-0.9,0.1-1.7,0.5-2.4c0.9-1.8,2.5-2.6,4.5-2.5c0.5,0,1,0.1,1.6,0.3c1.1,0.4,1.9,1,2.4,2
		c0.9,1.8,1,3.7-0.1,5.5c-0.7,1.3-1.9,1.9-3.3,2.2c-0.8,0.1-1.5,0.1-2.2-0.1c-1.8-0.6-2.9-1.8-3.3-3.7c0-0.2-0.1-0.3-0.1-0.5
		C109.5,52.5,109.5,52.3,109.5,52.1z M118,52c0-2.1-1.3-3.6-3.3-3.8c-1.7-0.2-3.3,0.6-4,2.4c-0.2,0.5-0.2,1.1-0.2,1.6
		c0.1,2,1.2,3.4,3.1,3.7c1.3,0.2,2.6-0.1,3.5-1.2C117.8,54,118,53.1,118,52z"/>
</g>
<text transform="matrix(1 0 0 1 201.8709 59.0016)" class="st4 st5">Relocation Form</text>
<text transform="matrix(1 0 0 1 33.6551 80.4674)" class="st6 st7">Please Fill in Information Below </text>
<text transform="matrix(1 0 0 1 33.6551 123.6637)"><tspan x="0" y="0" class="st8 st7">Form No</tspan><tspan x="37" y="0" class="st8 st7 st9">	</tspan><tspan x="57.4" y="0" class="st8 st7 st10">		</tspan><tspan x="114.9" y="0" class="st8 st7">:</tspan><tspan x="0" y="23.9" class="st8 st7">Company/Tenant Name</tspan><tspan x="101.9" y="23.9" class="st8 st7 st11">	</tspan><tspan x="114.9" y="23.9" class="st8 st7">:</tspan><tspan x="0" y="47.9" class="st8 st7">Tenant PIC</tspan><tspan x="46.9" y="47.9" class="st8 st7 st12">	</tspan><tspan x="57.4" y="47.9" class="st8 st7 st10">		</tspan><tspan x="114.9" y="47.9" class="st8 st7">:</tspan><tspan x="0" y="71.8" class="st8 st7">Tenant PIC Telephone</tspan><tspan x="93.9" y="71.8" class="st8 st7 st9">	</tspan><tspan x="114.9" y="71.8" class="st8 st7">:</tspan><tspan x="0" y="95.7" class="st8 st7">Action</tspan><tspan x="27.4" y="95.7" class="st8 st7 st13">	</tspan><tspan x="28.7" y="95.7" class="st8 st7 st10">			</tspan><tspan x="114.9" y="95.7" class="st8 st7">:</tspan></text>
<text transform="matrix(1 0 0 1 330.6678 123.6637)"><tspan x="0" y="0" class="st8 st7">Request Date</tspan><tspan x="56.9" y="0" class="st8 st7 st13">	</tspan><tspan x="57.4" y="0" class="st8 st7 st10">	</tspan><tspan x="86.1" y="0" class="st8 st7">:</tspan><tspan x="0" y="23.9" class="st8 st7">Agreement No</tspan><tspan x="61.5" y="23.9" class="st8 st7 st14">	</tspan><tspan x="86.1" y="23.9" class="st8 st7">:</tspan><tspan x="0" y="47.9" class="st8 st7">Email</tspan><tspan x="23.7" y="47.9" class="st8 st7 st15">	</tspan><tspan x="28.7" y="47.9" class="st8 st7 st10">		</tspan><tspan x="86.1" y="47.9" class="st8 st7">:</tspan></text>
<line class="st1" x1="155" y1="132.3" x2="286.2" y2="132.3"/>
<line class="st1" x1="155" y1="155.6" x2="286.2" y2="155.6"/>
<line class="st1" x1="155" y1="178.8" x2="286.2" y2="178.8"/>
<line class="st1" x1="155" y1="202" x2="286.2" y2="202"/>
<line class="st1" x1="155" y1="225.2" x2="286.2" y2="225.2"/>
<line class="st1" x1="424.3" y1="132.3" x2="555.6" y2="132.3"/>
<line class="st1" x1="424.3" y1="155.6" x2="555.6" y2="155.6"/>
<line class="st1" x1="424.3" y1="178.8" x2="555.6" y2="178.8"/>
<rect x="19.6" y="252.7" class="st2" width="551.9" height="323.3"/>
<text transform="matrix(1 0 0 1 33.6551 271.4958)"><tspan x="0" y="0" class="st16 st7">Details</tspan><tspan x="0" y="27.9" class="st8 st7">Move Room Date</tspan><tspan x="73.1" y="27.9" class="st8 st7 st11">	</tspan><tspan x="86.1" y="27.9" class="st8 st7 st10">	</tspan><tspan x="114.9" y="27.9" class="st8 st7">:</tspan><tspan x="0" y="55.8" class="st8 st7">Old Room Date</tspan><tspan x="63.9" y="55.8" class="st8 st7 st17">	</tspan><tspan x="86.1" y="55.8" class="st8 st7 st10">	</tspan><tspan x="114.9" y="55.8" class="st8 st7">:</tspan><tspan x="0" y="83.8" class="st8 st7">Current Lease Period</tspan><tspan x="89.2" y="83.8" class="st8 st7 st18">	</tspan><tspan x="114.9" y="83.8" class="st8 st7">:</tspan><tspan x="0" y="111.7" class="st8 st7">Current Monthly Period</tspan><tspan x="98.1" y="111.7" class="st8 st7 st19">	</tspan><tspan x="114.9" y="111.7" class="st8 st7">:</tspan><tspan x="0" y="139.6" class="st8 st7">Current Deposit</tspan><tspan x="66.4" y="139.6" class="st8 st7 st20">	</tspan><tspan x="86.1" y="139.6" class="st8 st7 st10">	</tspan><tspan x="114.9" y="139.6" class="st8 st7">:</tspan><tspan x="0" y="167.5" class="st8 st7">Current Advance Payment</tspan><tspan x="110.7" y="167.5" class="st8 st7 st21">	</tspan><tspan x="114.9" y="167.5" class="st8 st7">:</tspan><tspan x="0" y="195.4" class="st8 st7">Current Payment Terms</tspan><tspan x="101.2" y="195.4" class="st8 st7 st22">	</tspan><tspan x="114.9" y="195.4" class="st8 st7">:</tspan><tspan x="0" y="223.3" class="st8 st7">Current Payment Schedule</tspan><tspan x="112.9" y="223.3" class="st8 st7">	</tspan><tspan x="114.9" y="223.3" class="st8 st7">:</tspan><tspan x="0" y="251.3" class="st8 st7">Remarks</tspan><tspan x="37.6" y="251.3" class="st8 st7 st20">	</tspan><tspan x="57.4" y="251.3" class="st8 st7 st10">		</tspan><tspan x="114.9" y="251.3" class="st8 st7">:</tspan></text>
<rect x="155" y="286.3" class="st3" width="131.3" height="21.5"/>
<text transform="matrix(1 0 0 1 330.2928 299.4128)"><tspan x="0" y="0" class="st8 st7">New Room Number</tspan><tspan x="83.2" y="0" class="st8 st7">	</tspan><tspan x="86.1" y="0" class="st8 st7">:</tspan><tspan x="0" y="27.9" class="st8 st7">New Lease Period</tspan><tspan x="76.8" y="27.9" class="st8 st7 st23">	</tspan><tspan x="86.1" y="27.9" class="st8 st7">:</tspan><tspan x="-1.9" y="55.8" class="st8 st7">New Monthly Period :</tspan><tspan x="29.8" y="83.8" class="st8 st7">New Deposit :</tspan><tspan x="-14.5" y="111.7" class="st8 st7">New Advance Payment :</tspan></text>
<rect x="155" y="314.3" class="st3" width="131.3" height="21.5"/>
<rect x="155" y="342.2" class="st3" width="131.3" height="21.5"/>
<rect x="155" y="370.1" class="st3" width="131.3" height="21.5"/>
<rect x="155" y="398.1" class="st3" width="131.3" height="21.5"/>
<rect x="424.3" y="286.3" class="st3" width="131.3" height="21.5"/>
<rect x="424.3" y="314.3" class="st3" width="131.3" height="21.5"/>
<rect x="424.3" y="342.2" class="st3" width="131.3" height="21.5"/>
<rect x="424.3" y="370.1" class="st3" width="131.3" height="21.5"/>
<rect x="424.3" y="398.1" class="st3" width="131.3" height="21.5"/>
<rect x="155" y="426" class="st3" width="131.3" height="21.5"/>
<rect x="155" y="453.9" class="st3" width="131.3" height="21.5"/>
<rect x="155" y="481.9" class="st3" width="131.3" height="21.5"/>
<rect x="155" y="509.8" class="st3" width="400.7" height="47.1"/>
<g>
	<g>
		<text transform="matrix(1 0 0 1 66.7967 607.1432)"><tspan x="0" y="0" class="st4 st7">Requested by</tspan><tspan x="11" y="13.6" class="st6 st7">(CM/BD)</tspan></text>
		<text transform="matrix(1 0 0 1 57.7245 679.5289)"><tspan x="0" y="0" class="st8 st7">Name &amp; Signature</tspan><tspan x="0" y="11.5" class="st4 st7">Date :</tspan></text>
	</g>
	<g>
		<text transform="matrix(1 0 0 1 190.8133 679.5289)"><tspan x="0" y="0" class="st8 st7">Name &amp; Signature</tspan><tspan x="0" y="11.5" class="st4 st7">Date :</tspan></text>
		<text transform="matrix(1 0 0 1 202.1405 607.1432)"><tspan x="0" y="0" class="st4 st7">Reviewed by</tspan><tspan x="-14.8" y="13.6" class="st6 st7">(CM Lead/BD Head)</tspan></text>
	</g>
	<g>
		<text transform="matrix(1 0 0 1 324.6571 679.5289)"><tspan x="0" y="0" class="st8 st7">Name &amp; Signature</tspan><tspan x="0" y="11.5" class="st4 st7">Date :</tspan></text>
		<text transform="matrix(1 0 0 1 335.9364 607.1432)"><tspan x="0" y="0" class="st4 st7">Approved by</tspan><tspan x="14.8" y="13.6" class="st6 st7">(CGS)</tspan></text>
	</g>
	<g>
		<text transform="matrix(1 0 0 1 458.5008 679.5289)"><tspan x="0" y="0" class="st8 st7">Name &amp; Signature</tspan><tspan x="0" y="11.5" class="st4 st7">Date :</tspan></text>
		<text transform="matrix(1 0 0 1 471.8123 607.1432)"><tspan x="0" y="0" class="st4 st7">Checked by</tspan><tspan x="15.5" y="13.6" class="st6 st7">(CG)</tspan></text>
	</g>
</g>
<rect x="27.6" y="726.9" class="st24" width="547.6" height="56.6"/>
<text transform="matrix(1 0 0 1 27.5643 732.9122)"><tspan x="0" y="0" class="st6 st25">Tenant request for room changes will be processed at IT system within 1-9 Working Days since Corporate Growth Support received complete information and </tspan><tspan x="0" y="9.6" class="st6 st25">supporting document for Relocation Form from CM/BD team, depends on the type of actions required by FM and PM.</tspan><tspan x="0" y="19.1" class="st6 st25">Copy of this will be distributed by CM to Corporate Growth Support</tspan><tspan x="0" y="28.7" class="st6 st25">Distribution list to Company Growth (CG), Facility Manager (FM) and Finance Accounting (FA)</tspan><tspan x="0" y="38.3" class="st6 st25">Supporting document for old tenant (before June 2018): Copy Deed of Incorporation (Akta Pendirian), Copy of Company NPWP, Copy of ID/Passport’s Director</tspan></text>
<circle cx="22.6" cy="730.6" r="1.7"/>
<circle cx="22.6" cy="749.8" r="1.7"/>
<circle cx="22.6" cy="759.3" r="1.7"/>
<circle cx="22.6" cy="768.8" r="1.7"/>
<text transform="matrix(1 0 0 1 158.6971 123.6637)" class="st8 st7">{{form_no}}</text>
<text transform="matrix(1 0 0 1 427.3375 123.6637)" class="st8 st7">{{request_date}}</text>
<text transform="matrix(1 0 0 1 427.3375 146.9407)" class="st8 st7">{{agreement_no}}</text>
<text transform="matrix(1 0 0 1 427.3375 169.6186)" class="st8 st7">{{email}}</text>
<text transform="matrix(1 0 0 1 158.6971 146.9405)" class="st8 st7">{{company_name}}</text>
<text transform="matrix(1 0 0 1 158.6971 171.8707)" class="st8 st7">{{tenant_PIC}}</text>
<text transform="matrix(1 0 0 1 158.6971 195.1474)" class="st8 st7">{{tenant_tel}}</text>
<text transform="matrix(1 0 0 1 158.6971 217.8253)" class="st8 st7">{{action}}</text>
<text transform="matrix(1 0 0 1 158.6971 300.3077)" class="st8 st7">{{tenant_tel}}</text>
<text transform="matrix(1 0 0 1 158.6971 327.9666)" class="st8 st7">{{action}}</text>
<text transform="matrix(1 0 0 1 158.6971 356.3004)" class="st8 st7">{{tenant_tel}}</text>
<text transform="matrix(1 0 0 1 158.6971 383.9592)" class="st8 st7">{{current_montly_pr}}</text>
<text transform="matrix(1 0 0 1 158.6971 412.1628)" class="st8 st7">{{current_deposit}}</text>
<text transform="matrix(1 0 0 1 427.3379 300.3077)" class="st8 st7">{{New_room_no}}</text>
<text transform="matrix(1 0 0 1 427.3379 327.9666)" class="st8 st7">{{New_lease_prd}}</text>
<text transform="matrix(1 0 0 1 427.3379 356.3004)" class="st8 st7">{{new_monthly_prd}}</text>
<text transform="matrix(1 0 0 1 427.3379 383.9592)" class="st8 st7">{{new_deposit}}</text>
<text transform="matrix(1 0 0 1 427.3379 412.1628)" class="st8 st7">{{new_advance_pym}}</text>
<text transform="matrix(1 0 0 1 158.6971 439.8216)" class="st8 st7">{{current_advance}}</text>
<text transform="matrix(1 0 0 1 158.6971 467.3499)" class="st8 st7">{{current_payment}}</text>
<text transform="matrix(1 0 0 1 158.6971 495.5534)" class="st8 st7">{{current_payment_sch}}</text>
<text transform="matrix(1 0 0 1 158.6971 523.2122)" class="st8 st7">{{remarks}}</text>
</svg>
